<?xml version="1.0" encoding="utf-8"?>
<!-- Generator: Adobe Illustrator 15.1.0, SVG Export Plug-In . SVG Version: 6.00 Build 0)  -->
<!DOCTYPE svg PUBLIC "-//W3C//DTD SVG 1.1//EN" "http://www.w3.org/Graphics/SVG/1.1/DTD/svg11.dtd">
<svg version="1.1" id="Warstwa_1" xmlns="http://www.w3.org/2000/svg" xmlns:xlink="http://www.w3.org/1999/xlink" x="0px" y="0px"
	 width="150px" height="250px" viewBox="-38 -88 150 250" enable-background="new -38 -88 150 250" xml:space="preserve">
<path d="M-1-11.384v-3.232c-1.65-0.587-2.693-0.752-3.219-2.019v-0.001c-0.527-1.271,0.1-2.134,0.847-3.707l-2.285-2.285
	c-1.561,0.742-2.433,1.375-3.706,0.847h-0.002c-1.269-0.525-1.435-1.576-2.019-3.219h-3.232c-0.581,1.635-0.749,2.691-2.019,3.219
	h-0.001c-1.271,0.528-2.132-0.098-3.707-0.847l-2.285,2.285c0.745,1.567,1.375,2.434,0.847,3.707
	c-0.527,1.271-1.584,1.438-3.219,2.02v3.232c1.632,0.579,2.692,0.749,3.219,2.019c0.53,1.282-0.114,2.166-0.847,3.707l2.285,2.286
	c1.562-0.743,2.434-1.375,3.707-0.847h0.001c1.27,0.525,1.436,1.578,2.019,3.219h3.232c0.581-1.636,0.75-2.689,2.026-3.223h0.002
	c1.262-0.523,2.119,0.102,3.697,0.852l2.285-2.286C-4.117-7.221-4.748-8.09-4.221-9.363C-3.693-10.634-2.633-10.803-1-11.384z
	 M-13-9c-2.209,0-4-1.791-4-4s1.791-4,4-4s4,1.791,4,4S-10.791-9-13-9z"/>
<path d="M-19,136.75c0,1.657-1.343,3-3,3s-3-1.343-3-3s1.343-3,3-3S-19,135.093-19,136.75z M-10,136.75c0,1.657-1.343,3-3,3
	s-3-1.343-3-3s1.343-3,3-3S-10,135.093-10,136.75z M-1,136.75c0,1.657-1.343,3-3,3s-3-1.343-3-3s1.343-3,3-3S-1,135.093-1,136.75z"
	/>
<path d="M-15.037,33.261c-0.566-0.585-0.536-1.503,0.047-2.069l5.948-5.769C-8.751,25.143-8.378,25-8.007,25
	c0.376,0,0.75,0.146,1.034,0.439L-15.037,33.261z M-24.815,47.957C-24.938,48.075-25,48.234-25,48.393
	C-25,48.727-24.729,49-24.393,49c0.152,0,0.305-0.057,0.423-0.171l0.999-0.972l-0.845-0.873L-24.815,47.957z M-16.375,36.723
	l-3.419,3.314c-1.837,1.781-2.774,3.507-3.64,5.916l1.509,1.559c2.434-0.789,4.187-1.673,6.024-3.455l3.418-3.314L-16.375,36.723z
	 M-6.404,26.511l-8.807,8.54l4.436,4.579l8.807-8.538C-1.324,30.466-1,29.634-1,28.801C-1,26.018-4.373,24.54-6.404,26.511z"/>
<path d="M-12,81c3.469,0,2,5,2,5s5-1.594,5,2v9h-12V81H-12z M-11.173,79H-19v20h16V87.158C-3,84.766-8.012,79-11.173,79z M-11,77
	l-3-2h-9v22h2V77H-11z"/>
<g>
	<polygon points="147.882,-113.044 153.464,-113.044 153.464,-115.137 149.695,-115.137 	"/>
	<polygon points="145.788,-127 157.65,-127 157.65,-125.604 159.046,-125.604 159.046,-128.396 144.393,-128.396 144.393,-116.533 
		153.464,-116.533 153.464,-117.929 145.788,-117.929 	"/>
	<path d="M160.895-123.964c-0.157-0.157-0.37-0.245-0.593-0.245h-4.604c-0.223,0-0.435,0.088-0.593,0.245
		c-0.157,0.158-0.245,0.371-0.245,0.593v9.49c0,0.222,0.088,0.435,0.245,0.592c0.158,0.157,0.37,0.245,0.593,0.245h4.604
		c0.223,0,0.436-0.088,0.593-0.245c0.157-0.158,0.245-0.37,0.245-0.592v-9.49C161.14-123.593,161.052-123.806,160.895-123.964z
		 M158-113.742c-0.386,0-0.698-0.313-0.698-0.698c0-0.385,0.313-0.698,0.698-0.698s0.696,0.313,0.696,0.698
		C158.696-114.055,158.386-113.742,158-113.742z M158.697-122.813h-1.396c-0.192,0-0.349-0.157-0.349-0.349s0.156-0.349,0.349-0.349
		h1.396c0.192,0,0.349,0.156,0.349,0.349S158.89-122.813,158.697-122.813z"/>
</g>
<g>
	<defs>
		<rect id="SVGID_1_" x="28.916" y="26.75" width="32.084" height="20.053"/>
	</defs>
	<clipPath id="SVGID_2_">
		<use xlink:href="#SVGID_1_"  overflow="visible"/>
	</clipPath>
	<path clip-path="url(#SVGID_2_)" fill="#231F20" d="M61,36.773c0-5.529-4.492-10.026-10.027-10.026H38.943
		c-5.533,0-10.027,4.497-10.027,10.026c0,5.535,4.494,10.029,10.027,10.029h12.029C56.508,46.803,61,42.309,61,36.773
		 M58.999,36.773c0,4.422-3.604,8.023-8.026,8.023H44.93c2.442-1.831,4.038-4.745,4.038-8.023c0-3.272-1.596-6.188-4.038-8.021
		h6.043C55.395,28.753,58.999,32.357,58.999,36.773 M46.965,36.773c0,4.422-3.602,8.023-8.021,8.023
		c-4.421,0-8.024-3.602-8.024-8.023c0-4.416,3.604-8.021,8.024-8.021C43.363,28.753,46.965,32.357,46.965,36.773"/>
</g>
<g>
	<defs>
		<rect id="SVGID_3_" x="28.917" y="77" width="32.082" height="20.053"/>
	</defs>
	<clipPath id="SVGID_4_">
		<use xlink:href="#SVGID_3_"  overflow="visible"/>
	</clipPath>
	<path clip-path="url(#SVGID_4_)" fill="#6495ED" d="M50.976,95.047c-4.418,0-8.022-3.602-8.022-8.023
		c0-4.416,3.604-8.021,8.022-8.021c4.417,0,8.022,3.604,8.022,8.021C58.998,91.445,55.393,95.047,50.976,95.047 M28.917,87.023
		c0,5.535,4.496,10.029,10.027,10.029h12.031c5.529,0,10.023-4.494,10.023-10.029c0-5.529-4.494-10.026-10.023-10.026H38.944
		C33.413,76.997,28.917,81.494,28.917,87.023"/>
</g>
<g>
	<g>
		<path fill="#6495ED" d="M-20.693-61.247v-6.696c-0.361,0.258-0.774,0.487-1.239,0.687c-0.464,0.2-0.858,0.359-1.18,0.474
			l-0.774-1.973c0.31-0.116,0.645-0.265,1.006-0.446c0.36-0.179,0.722-0.379,1.083-0.6c0.36-0.219,0.703-0.451,1.025-0.696
			c0.323-0.246,0.6-0.496,0.833-0.754h1.626v10.005h2.379v1.973h-7.275v-1.973H-20.693z"/>
		<path fill="#6495ED" d="M-11.269-66.666c0,0.568-0.174,1-0.523,1.296c-0.348,0.298-0.748,0.446-1.199,0.446
			c-0.232,0-0.452-0.04-0.658-0.117c-0.207-0.077-0.391-0.19-0.551-0.338c-0.162-0.148-0.291-0.329-0.388-0.542
			c-0.097-0.213-0.145-0.461-0.145-0.745c0-0.271,0.048-0.513,0.145-0.726c0.097-0.212,0.226-0.389,0.388-0.532
			c0.161-0.142,0.345-0.25,0.551-0.329c0.206-0.077,0.426-0.115,0.658-0.115c0.451,0,0.851,0.148,1.199,0.444
			C-11.443-67.626-11.269-67.207-11.269-66.666z M-11.269-60.803c0,0.569-0.174,1-0.523,1.298c-0.348,0.296-0.748,0.444-1.199,0.444
			c-0.232,0-0.452-0.038-0.658-0.116c-0.207-0.077-0.391-0.189-0.551-0.339c-0.162-0.148-0.291-0.327-0.388-0.542
			c-0.097-0.213-0.145-0.46-0.145-0.745c0-0.271,0.048-0.512,0.145-0.726c0.097-0.213,0.226-0.389,0.388-0.531
			c0.161-0.144,0.345-0.252,0.551-0.329c0.206-0.079,0.426-0.117,0.658-0.117c0.451,0,0.851,0.148,1.199,0.446
			C-11.443-61.763-11.269-61.344-11.269-60.803z"/>
		<path fill="#6495ED" d="M-6.76-61.247v-6.696c-0.361,0.258-0.774,0.487-1.239,0.687c-0.464,0.2-0.858,0.359-1.18,0.474
			l-0.774-1.973c0.31-0.116,0.645-0.265,1.006-0.446c0.36-0.179,0.722-0.379,1.083-0.6c0.36-0.219,0.703-0.451,1.025-0.696
			c0.323-0.246,0.6-0.496,0.833-0.754h1.626v10.005H-2v1.973h-7.275v-1.973H-6.76z"/>
	</g>
</g>
<g>
	<path d="M49.86,2.199l-9.371-9.372c-1.762,1.108-3.836,1.759-6.071,1.759C28.112-5.414,23-10.525,23-16.832
		S28.112-28.25,34.418-28.25c6.307,0,11.419,5.111,11.419,11.418c0,2.234-0.652,4.312-1.76,6.071l9.371,9.372L49.86,2.199z
		 M34.418-7.951c4.896,0,8.881-3.984,8.881-8.881s-3.984-8.881-8.881-8.881s-8.881,3.984-8.881,8.881S29.521-7.951,34.418-7.951z"/>
	<polygon fill="#6495ED" points="39.493,-15.563 35.687,-15.563 35.687,-11.757 33.149,-11.757 33.149,-15.563 29.344,-15.563 
		29.344,-18.1 33.149,-18.1 33.149,-21.906 35.687,-21.906 35.687,-18.1 39.493,-18.1 	"/>
</g>
<g>
	<path d="M49.86-47.484l-9.371-9.371c-1.762,1.107-3.836,1.759-6.071,1.759C28.112-55.096,23-60.208,23-66.514
		c0-6.308,5.112-11.419,11.418-11.419c6.307,0,11.419,5.111,11.419,11.419c0,2.233-0.652,4.311-1.76,6.071l9.371,9.371L49.86-47.484
		z M34.418-57.634c4.896,0,8.881-3.984,8.881-8.88c0-4.897-3.984-8.881-8.881-8.881s-8.881,3.983-8.881,8.881
		C25.537-61.619,29.521-57.634,34.418-57.634z"/>
	<rect x="29.344" y="-67.783" fill="#6495ED" width="10.149" height="2.537"/>
</g>
<path d="M98-54.708h-3v4l-5.333-4H82v-4h2v2h6.333l2.667,2v-2h3v-8.001h-2v-2h4V-54.708z M82.333-60.708l-5.333,4v-4h-3v-14.001
	l18,0.001v14H82.333z M76-62.708h3v2l2.667-2H90v-10l-14-0.001V-62.708z"/>
<path d="M74-22v18h24v-18H74z M80.623-14.071L76-8.359v-9.458L80.623-14.071z M76.482-20h19.035L86-12.287L76.482-20z
	 M82.176-12.812L86-9.713l3.83-3.104L95.441-6H76.663L82.176-12.812z M91.384-14.076L96-17.817v9.348L91.384-14.076z"/>
<path d="M86,27c5.514,0,10,4.486,10,10s-4.486,10-10,10s-10-4.486-10-10S80.486,27,86,27z M86,25c-6.627,0-12,5.373-12,12
	s5.373,12,12,12s12-5.373,12-12S92.627,25,86,25z"/>
<polygon fill="#C13E32" points="92,41.538 87.408,36.99 91.954,32.402 90.538,31 85.993,35.589 81.404,31.046 80,32.451 
	84.593,37.003 80.046,41.596 81.451,43 86.006,38.404 90.598,42.954 "/>
<path fill="#6495ED" d="M81.107,79.66c-2.771-0.64-5.35-1.2-4.101-3.56c3.801-7.179,1.007-11.018-3.007-11.018
	c-4.093,0-6.818,3.987-3.006,11.018c1.286,2.373-1.39,2.933-4.101,3.56c-2.399,0.555-2.56,1.726-2.56,3.756l0.004,1h8.444
	l0.566-2.417h1.303l0.566,2.417h8.444l0.004-1C83.667,81.386,83.506,80.215,81.107,79.66L81.107,79.66z M74.477,81.194h-0.938
	l-0.732-1.611h2.411L74.477,81.194z"/>
<path fill="#C13E32" d="M88.583,65.372c2.245,0.963,6.967,0.767,6.665,5.111l-1.72,1.754C89.246,72.313,89.325,67.74,88.583,65.372z
	 M97.315,77.73c2.173,1.643,9.487,6.78,9.487,6.78c0.604,0.411,1.333-0.336,0.911-0.932c0,0-5.302-7.193-6.996-9.323
	c-1.337-1.686-2.007-1.746-4.38-2.444l-1.567,1.604C95.522,75.766,95.6,76.431,97.315,77.73z M93.402,80.403l2.103-2.107
	c-0.209-0.195-0.392-0.389-0.553-0.581l-2.116,2.122L93.402,80.403z M100.018,71.448l3.854-3.863l1.729,1.729l-3.767,3.775
	c0.351,0.421,0.652,0.819,0.999,1.271l5.007-5.017l-3.971-3.972l-5.392,5.402C99.042,70.958,99.542,71.161,100.018,71.448z
	 M103.897,68.747l-3.187,3.194c0.192,0.158,0.389,0.338,0.588,0.546l3.166-3.174L103.897,68.747z M96.114,78.819l-2.888,2.895
	l-2.391,0.661l0.661-2.39l2.949-2.958c-0.284-0.467-0.494-0.964-0.688-1.526l-3.713,3.719l-1.463,5.408l5.435-1.437l3.391-3.397
	C96.606,79.21,96.583,79.193,96.114,78.819z"/>
</svg>
