<?xml version="1.0" encoding="utf-8"?>
<!-- Generator: Adobe Illustrator 15.1.0, SVG Export Plug-In . SVG Version: 6.00 Build 0)  -->
<!DOCTYPE svg PUBLIC "-//W3C//DTD SVG 1.1//EN" "http://www.w3.org/Graphics/SVG/1.1/DTD/svg11.dtd">
<svg version="1.1" id="Warstwa_1" xmlns="http://www.w3.org/2000/svg" xmlns:xlink="http://www.w3.org/1999/xlink" x="0px" y="0px"
	 width="50px" height="200px" viewBox="-13 -88 50 200" enable-background="new -13 -88 50 200" xml:space="preserve">
<path d="M24-61.384v-3.232c-1.65-0.587-2.693-0.752-3.219-2.019v-0.001c-0.527-1.271,0.1-2.134,0.847-3.707l-2.285-2.285
	c-1.561,0.742-2.433,1.375-3.706,0.847h-0.002C14.366-72.307,14.2-73.357,13.616-75h-3.232c-0.581,1.635-0.749,2.691-2.019,3.219
	H8.364c-1.271,0.528-2.132-0.098-3.707-0.847l-2.285,2.285c0.745,1.567,1.375,2.434,0.847,3.707C2.692-65.365,1.635-65.198,0-64.616
	v3.232c1.632,0.579,2.692,0.749,3.219,2.019c0.53,1.282-0.114,2.166-0.847,3.707l2.285,2.286c1.562-0.743,2.434-1.375,3.707-0.847
	h0.001c1.27,0.525,1.436,1.578,2.019,3.219h3.232c0.581-1.636,0.75-2.689,2.026-3.223h0.002c1.262-0.523,2.119,0.102,3.697,0.852
	l2.285-2.286c-0.744-1.563-1.375-2.433-0.848-3.706C21.307-60.634,22.367-60.803,24-61.384z M12-59c-2.209,0-4-1.791-4-4
	s1.791-4,4-4s4,1.791,4,4S14.209-59,12-59z"/>
<path d="M6,86.75c0,1.657-1.343,3-3,3s-3-1.343-3-3s1.343-3,3-3S6,85.093,6,86.75z M15,86.75c0,1.657-1.343,3-3,3s-3-1.343-3-3
	s1.343-3,3-3S15,85.093,15,86.75z M24,86.75c0,1.657-1.343,3-3,3s-3-1.343-3-3s1.343-3,3-3S24,85.093,24,86.75z"/>
<path d="M9.963-16.739c-0.566-0.585-0.536-1.503,0.047-2.07l5.948-5.768C16.249-24.858,16.622-25,16.993-25
	c0.376,0,0.75,0.146,1.034,0.44L9.963-16.739z M0.185-2.043C0.062-1.925,0-1.766,0-1.607C0-1.273,0.271-1,0.607-1
	C0.759-1,0.912-1.057,1.03-1.171l0.999-0.972L1.184-3.016L0.185-2.043z M8.625-13.277L5.206-9.963
	c-1.837,1.781-2.774,3.507-3.64,5.916l1.509,1.559c2.434-0.789,4.187-1.673,6.024-3.455l3.418-3.314L8.625-13.277z M18.596-23.489
	l-8.807,8.54l4.436,4.579l8.807-8.538C23.676-19.534,24-20.366,24-21.199C24-23.983,20.627-25.46,18.596-23.489z"/>
<path d="M13,31c3.469,0,2,5,2,5s5-1.594,5,2v9H8V31H13z M13.827,29H6v20h16V37.158C22,34.766,16.988,29,13.827,29z M14,27l-3-2H2v22
	h2V27H14z"/>
</svg>
