<?xml version="1.0" encoding="utf-8"?>
<!-- Generator: Adobe Illustrator 15.1.0, SVG Export Plug-In . SVG Version: 6.00 Build 0)  -->
<!DOCTYPE svg PUBLIC "-//W3C//DTD SVG 1.1//EN" "http://www.w3.org/Graphics/SVG/1.1/DTD/svg11.dtd">
<svg version="1.1" id="Warstwa_1" xmlns="http://www.w3.org/2000/svg" xmlns:xlink="http://www.w3.org/1999/xlink" x="0px" y="0px"
	 width="150px" height="250px" viewBox="-38 -88 150 250" enable-background="new -38 -88 150 250" xml:space="preserve">
<path fill="#4D5863" d="M-19,136.75c0,1.657-1.343,3-3,3s-3-1.343-3-3s1.343-3,3-3S-19,135.093-19,136.75z M-10,136.75
	c0,1.657-1.343,3-3,3s-3-1.343-3-3s1.343-3,3-3S-10,135.093-10,136.75z M-1,136.75c0,1.657-1.343,3-3,3s-3-1.343-3-3s1.343-3,3-3
	S-1,135.093-1,136.75z"/>
<path fill="#4D5863" d="M-15.037,33.261c-0.566-0.585-0.536-1.503,0.047-2.069l5.948-5.769C-8.751,25.143-8.378,25-8.007,25
	c0.376,0,0.75,0.146,1.034,0.439L-15.037,33.261z M-24.815,47.957C-24.938,48.075-25,48.234-25,48.393
	C-25,48.727-24.729,49-24.393,49c0.152,0,0.305-0.057,0.423-0.171l0.999-0.972l-0.845-0.873L-24.815,47.957z M-16.375,36.723
	l-3.419,3.314c-1.837,1.781-2.774,3.507-3.64,5.916l1.509,1.559c2.434-0.789,4.187-1.673,6.024-3.455l3.418-3.314L-16.375,36.723z
	 M-6.404,26.511l-8.807,8.54l4.436,4.579l8.807-8.538C-1.324,30.466-1,29.634-1,28.801C-1,26.018-4.373,24.54-6.404,26.511z"/>
<path fill="#4D5863" d="M-12,81c3.469,0,2,5,2,5s5-1.594,5,2v9h-12V81H-12z M-11.173,79H-19v20h16V87.158
	C-3,84.766-8.012,79-11.173,79z M-11,77l-3-2h-9v22h2V77H-11z"/>
<g>
	<polygon points="147.882,-113.044 153.464,-113.044 153.464,-115.137 149.695,-115.137 	"/>
	<polygon points="145.788,-127 157.65,-127 157.65,-125.604 159.046,-125.604 159.046,-128.396 144.393,-128.396 144.393,-116.533 
		153.464,-116.533 153.464,-117.929 145.788,-117.929 	"/>
	<path d="M160.895-123.964c-0.157-0.157-0.37-0.245-0.593-0.245h-4.604c-0.223,0-0.435,0.088-0.593,0.245
		c-0.157,0.158-0.245,0.371-0.245,0.593v9.49c0,0.222,0.088,0.435,0.245,0.592c0.158,0.157,0.37,0.245,0.593,0.245h4.604
		c0.223,0,0.436-0.088,0.593-0.245c0.157-0.158,0.245-0.37,0.245-0.592v-9.49C161.14-123.593,161.052-123.806,160.895-123.964z
		 M158-113.742c-0.386,0-0.698-0.313-0.698-0.698c0-0.385,0.313-0.698,0.698-0.698s0.696,0.313,0.696,0.698
		C158.696-114.055,158.386-113.742,158-113.742z M158.697-122.813h-1.396c-0.192,0-0.349-0.157-0.349-0.349s0.156-0.349,0.349-0.349
		h1.396c0.192,0,0.349,0.156,0.349,0.349S158.89-122.813,158.697-122.813z"/>
</g>
<g>
	<defs>
		<rect id="SVGID_1_" x="28.917" y="77" width="32.082" height="20.053"/>
	</defs>
	<clipPath id="SVGID_2_">
		<use xlink:href="#SVGID_1_"  overflow="visible"/>
	</clipPath>
	<path clip-path="url(#SVGID_2_)" fill="#6495ED" d="M50.976,95.047c-4.418,0-8.022-3.602-8.022-8.023
		c0-4.416,3.604-8.021,8.022-8.021c4.417,0,8.022,3.604,8.022,8.021C58.998,91.445,55.393,95.047,50.976,95.047 M28.917,87.023
		c0,5.535,4.496,10.029,10.027,10.029h12.031c5.529,0,10.023-4.494,10.023-10.029c0-5.529-4.494-10.026-10.023-10.026H38.944
		C33.413,76.997,28.917,81.494,28.917,87.023"/>
</g>
<g>
	<g>
		<path fill="#6495ED" d="M-20.693-61.247v-6.696c-0.361,0.258-0.774,0.487-1.239,0.687c-0.464,0.2-0.858,0.359-1.18,0.474
			l-0.774-1.973c0.31-0.116,0.645-0.265,1.006-0.446c0.36-0.179,0.722-0.379,1.083-0.6c0.36-0.219,0.703-0.451,1.025-0.696
			c0.323-0.246,0.6-0.496,0.833-0.754h1.626v10.005h2.379v1.973h-7.275v-1.973H-20.693z"/>
		<path fill="#6495ED" d="M-11.269-66.666c0,0.568-0.174,1-0.523,1.296c-0.348,0.298-0.748,0.446-1.199,0.446
			c-0.232,0-0.452-0.04-0.658-0.117c-0.207-0.077-0.391-0.19-0.551-0.338c-0.162-0.148-0.291-0.329-0.388-0.542
			c-0.097-0.213-0.145-0.461-0.145-0.745c0-0.271,0.048-0.513,0.145-0.726c0.097-0.212,0.226-0.389,0.388-0.532
			c0.161-0.142,0.345-0.25,0.551-0.329c0.206-0.077,0.426-0.115,0.658-0.115c0.451,0,0.851,0.148,1.199,0.444
			C-11.443-67.626-11.269-67.207-11.269-66.666z M-11.269-60.803c0,0.569-0.174,1-0.523,1.298c-0.348,0.296-0.748,0.444-1.199,0.444
			c-0.232,0-0.452-0.038-0.658-0.116c-0.207-0.077-0.391-0.189-0.551-0.339c-0.162-0.148-0.291-0.327-0.388-0.542
			c-0.097-0.213-0.145-0.46-0.145-0.745c0-0.271,0.048-0.512,0.145-0.726c0.097-0.213,0.226-0.389,0.388-0.531
			c0.161-0.144,0.345-0.252,0.551-0.329c0.206-0.079,0.426-0.117,0.658-0.117c0.451,0,0.851,0.148,1.199,0.446
			C-11.443-61.763-11.269-61.344-11.269-60.803z"/>
		<path fill="#6495ED" d="M-6.76-61.247v-6.696c-0.361,0.258-0.774,0.487-1.239,0.687c-0.464,0.2-0.858,0.359-1.18,0.474
			l-0.774-1.973c0.31-0.116,0.645-0.265,1.006-0.446c0.36-0.179,0.722-0.379,1.083-0.6c0.36-0.219,0.703-0.451,1.025-0.696
			c0.323-0.246,0.6-0.496,0.833-0.754h1.626v10.005H-2v1.973h-7.275v-1.973H-6.76z"/>
	</g>
</g>
<g>
	<path fill="#4D5863" d="M49.86,2.199l-9.371-9.372c-1.762,1.108-3.836,1.759-6.071,1.759C28.112-5.414,23-10.525,23-16.832
		S28.112-28.25,34.418-28.25c6.307,0,11.419,5.111,11.419,11.418c0,2.234-0.652,4.312-1.76,6.071l9.371,9.372L49.86,2.199z
		 M34.418-7.951c4.896,0,8.881-3.984,8.881-8.881s-3.984-8.881-8.881-8.881s-8.881,3.984-8.881,8.881S29.521-7.951,34.418-7.951z"/>
	<polygon fill="#6495ED" points="39.493,-15.563 35.687,-15.563 35.687,-11.757 33.149,-11.757 33.149,-15.563 29.344,-15.563 
		29.344,-18.1 33.149,-18.1 33.149,-21.906 35.687,-21.906 35.687,-18.1 39.493,-18.1 	"/>
</g>
<g>
	<path fill="#4D5863" d="M49.86-47.484l-9.371-9.371c-1.762,1.107-3.836,1.759-6.071,1.759C28.112-55.096,23-60.208,23-66.514
		c0-6.308,5.112-11.419,11.418-11.419c6.307,0,11.419,5.111,11.419,11.419c0,2.233-0.652,4.311-1.76,6.071l9.371,9.371L49.86-47.484
		z M34.418-57.634c4.896,0,8.881-3.984,8.881-8.88c0-4.897-3.984-8.881-8.881-8.881s-8.881,3.983-8.881,8.881
		C25.537-61.619,29.521-57.634,34.418-57.634z"/>
	<rect x="29.344" y="-67.783" fill="#6495ED" width="10.149" height="2.537"/>
</g>
<path fill="#4D5863" d="M98-54.708h-3v4l-5.333-4H82v-4h2v2h6.333l2.667,2v-2h3v-8.001h-2v-2h4V-54.708z M82.333-60.708l-5.333,4v-4
	h-3v-14.001l18,0.001v14H82.333z M76-62.708h3v2l2.667-2H90v-10l-14-0.001V-62.708z"/>
<path fill="#4D5863" d="M74-22v18h24v-18H74z M80.623-14.071L76-8.359v-9.458L80.623-14.071z M76.482-20h19.035L86-12.287L76.482-20
	z M82.176-12.812L86-9.713l3.83-3.104L95.441-6H76.663L82.176-12.812z M91.384-14.076L96-17.817v9.348L91.384-14.076z"/>
<path fill="#4D5863" d="M86,27c5.514,0,10,4.486,10,10s-4.486,10-10,10s-10-4.486-10-10S80.486,27,86,27z M86,25
	c-6.627,0-12,5.373-12,12s5.373,12,12,12s12-5.373,12-12S92.627,25,86,25z"/>
<polygon fill="#C13E32" points="92,41.538 87.408,36.99 91.954,32.402 90.538,31 85.993,35.589 81.404,31.046 80,32.451 
	84.593,37.003 80.046,41.596 81.451,43 86.006,38.404 90.598,42.954 "/>
<path fill="#4D5863" d="M-0.233-10.539v-4.922C-2.65-16.322-3.3-16.363-3.639-17.18c-0.341-0.821,0.095-1.315,1.192-3.626
	l-3.479-3.479c-2.28,1.084-2.8,1.535-3.628,1.192c-0.817-0.34-0.863-1-1.718-3.406h-4.922c-0.859,2.413-0.899,3.065-1.719,3.406
	c-0.846,0.352-1.354-0.113-3.627-1.192l-3.479,3.479c1.1,2.313,1.533,2.806,1.192,3.627c-0.341,0.817-0.991,0.859-3.406,1.718v4.922
	c2.406,0.856,3.065,0.901,3.406,1.719c0.342,0.826-0.092,1.313-1.192,3.626l3.479,3.479c2.25-1.069,2.78-1.544,3.627-1.192
	c0.818,0.34,0.859,0.991,1.719,3.406h4.922c0.853-2.397,0.899-3.063,1.729-3.41c0.837-0.346,1.334,0.112,3.617,1.195l3.479-3.48
	C-3.544-7.5-3.979-7.999-3.639-8.821C-3.3-9.637-2.647-9.679-0.233-10.539z M-5.717-9.68c-0.649,1.568-0.077,2.765,0.549,4.025
	l-1.22,1.219c-1.23-0.611-2.431-1.21-4.02-0.551c-1.57,0.653-2.014,1.905-2.462,3.236h-1.725c-0.448-1.334-0.89-2.584-2.457-3.234
	c-1.596-0.661-2.82-0.051-4.025,0.549l-1.22-1.219c0.626-1.258,1.2-2.452,0.548-4.028c-0.651-1.564-1.902-2.007-3.235-2.455v-1.725
	c1.333-0.448,2.584-0.89,3.234-2.458s0.077-2.767-0.549-4.027l1.22-1.219c1.217,0.605,2.432,1.212,4.027,0.549
	c1.566-0.649,2.008-1.9,2.457-3.234h1.725c0.448,1.334,0.892,2.584,2.458,3.234c1.596,0.661,2.819,0.051,4.026-0.549l1.219,1.219
	c-0.626,1.262-1.198,2.461-0.549,4.028c0.649,1.564,1.9,2.007,3.234,2.457v1.725C-3.816-11.688-5.07-11.247-5.717-9.68z
	 M-13.733-16.375c1.861,0,3.375,1.514,3.375,3.375s-1.514,3.375-3.375,3.375s-3.375-1.514-3.375-3.375S-15.594-16.375-13.733-16.375
	z M-13.733-18.625c-3.107,0-5.625,2.518-5.625,5.625s2.518,5.625,5.625,5.625S-8.108-9.893-8.108-13S-10.626-18.625-13.733-18.625z"
	/>
<path fill="#4D5863" d="M61,36.773c0-5.529-4.492-10.026-10.027-10.026H38.943c-5.533,0-10.027,4.497-10.027,10.026
	c0,5.535,4.494,10.029,10.027,10.029h12.029C56.508,46.803,61,42.309,61,36.773 M58.999,36.773c0,4.422-3.604,8.023-8.026,8.023
	H44.93c2.442-1.831,4.038-4.745,4.038-8.023c0-3.272-1.596-6.188-4.038-8.021h6.043C55.395,28.753,58.999,32.357,58.999,36.773
	 M46.965,36.773c0,4.422-3.602,8.023-8.021,8.023c-4.421,0-8.024-3.602-8.024-8.023c0-4.416,3.604-8.021,8.024-8.021
	C43.363,28.753,46.965,32.357,46.965,36.773"/>
<path fill="#4D5863" d="M128.293,125.153v22h15.4v-2.2h-13.2v-17.6h13.2v-2.2H128.293z"/>
<path fill="#4D5863" d="M199.347,126.728v14.477h-12.966l-4.853,3.459v-3.459h-4.454v-14.477H199.347z M201.574,124.5h-26.728v18.91
	h4.455V149l7.795-5.59h14.478V124.5z"/>
<polygon fill="#6495ED" points="193.285,135.02 189.479,135.02 189.479,138.825 186.941,138.825 186.941,135.02 183.136,135.02 
	183.136,132.482 186.941,132.482 186.941,128.676 189.479,128.676 189.479,132.482 193.285,132.482 "/>
<path fill="#C13E32" d="M154.693,136.153l-8.801-7.7v4.4h-8.8v6.6h8.8v4.4L154.693,136.153z M139.293,137.253v-2.199h8.8v-1.751
	l3.26,2.851l-3.26,2.851v-1.751H139.293z"/>
<path fill="#6495ED" d="M84.003,84.416h-1.664c0-2.588,0.1-2.96-1.469-3.324c-2.399-0.554-4.665-1.076-5.49-2.883
	c-0.301-0.659-0.5-1.748,0.259-3.181c1.703-3.217,2.13-5.976,1.17-7.569c-1.118-1.857-4.514-1.868-5.643,0.029
	c-0.963,1.614-0.529,4.358,1.188,7.525c0.776,1.428,0.581,2.519,0.281,3.182c-0.818,1.815-3.063,2.334-5.44,2.882
	c-1.638,0.379-1.533,0.726-1.533,3.339h-1.664l-0.004-1.035c0-2.101,0.166-3.314,2.65-3.889c2.806-0.648,5.577-1.228,4.244-3.684
	C66.941,68.529,69.762,64.402,74,64.402c4.155,0,7.048,3.974,3.112,11.406c-1.293,2.441,1.376,3.021,4.244,3.684
	c2.484,0.574,2.65,1.788,2.65,3.889L84.003,84.416z M72.764,79.412l0.759,1.668h0.971l0.768-1.668H72.764z M75.261,84.416
	l-0.587-2.502h-1.347l-0.588,2.502H75.261z"/>
<path fill="#C13E32" d="M103.323,70.127c-0.994,1.662-1.967,3.272-2.499,4.107c-0.671,1.053-0.901,1.203-2.247,1.752l-0.144-0.119
	c0.298-1.433,0.402-1.687,1.314-2.54C100.47,72.653,101.873,71.404,103.323,70.127z M94.925,79.331l0.713,0.594
	c-0.132,2.084-1.932,2.823-3.462,2.636C93.596,81.247,93.75,79.584,94.925,79.331z M106.984,64.747c0,0-6.451,5.608-8.352,7.386
	c-1.505,1.406-1.511,2.048-1.997,4.363l1.648,1.375c2.185-0.898,2.813-1.021,3.92-2.759c1.4-2.197,5.737-9.567,5.737-9.567
	C108.287,64.935,107.52,64.295,106.984,64.747z M95.454,77.643c-4.165,0.043-2.552,4.826-7.055,4.453
	c2.659,3.699,9.307,2.487,8.859-2.947L95.454,77.643z"/>
<polygon fill="#C13E32" points="43.993,142.199 37.876,136.141 43.932,130.028 42.046,128.16 35.991,134.273 29.878,128.222 
	28.007,130.094 34.125,136.157 28.068,142.275 29.94,144.146 36.008,138.024 42.125,144.085 "/>
<polygon fill="#6495ED" points="87.377,146.08 87.336,137.471 95.939,137.431 95.927,134.776 87.323,134.817 87.279,126.216 
	84.633,126.217 84.672,134.83 76.063,134.874 76.063,137.521 84.683,137.481 84.723,146.093 "/>
</svg>
